<svg width="256" height="257" viewBox="0 0 256 257" fill="none" xmlns="http://www.w3.org/2000/svg">
<rect width="256" height="256" transform="translate(0 0.643311)" fill="#0B0077"/>
<path fill-rule="evenodd" clip-rule="evenodd" d="M100.238 147.65V148.132C100.32 151.57 101.344 164.022 112.284 166.334H100.238C94.1237 166.334 89.1609 161.379 89.1609 155.272V90.838C95.2755 90.838 100.238 95.7936 100.238 101.899V147.247V147.65ZM152.092 118.089C155.95 120.964 162.594 138.337 155.823 140.027H121.807C120.931 154.285 135.533 162.012 147.198 155.193C153.043 151.357 153.883 152.529 157.206 157.156C157.379 157.397 157.559 157.647 157.747 157.907C145.528 171.498 118.537 168.818 112.698 150.237C102.404 124.885 129.418 99.1865 152.092 118.089ZM148.442 133.186H122.118C122.613 116.008 149.305 115.56 148.442 133.186ZM75.538 90.8844H74.9737V90.9075C71.4966 90.9655 68.4795 91.5399 65.8536 92.5175C63.0784 93.7251 60.8328 95.2887 59.0139 97.2661C57.1942 99.2552 55.8128 101.509 54.9485 104.004C53.9931 106.602 53.5672 109.362 53.5672 112.213V114.628H45.5293C46.7499 117.387 49.8018 121.757 56.9406 122.091C56.9406 122.091 55.5477 123.574 53.5672 124.999V155.147V166.381C57.2406 166.381 60.5104 164.575 62.5489 161.816C63.9079 159.965 64.7365 157.699 64.7365 155.228V122.585H77.5416V114.628H64.391V112.213C64.391 107.902 65.508 104.613 67.6733 102.279C69.585 100.29 72.1753 99.1749 75.4576 98.91C75.4576 98.91 75.8379 98.91 76.4362 98.8984C80.064 98.8984 82.9999 95.9666 82.9999 92.3453V90.8844H75.5496H75.538ZM210.469 166.448H209.09C202.107 166.448 195.613 162.787 191.98 156.829L190.147 153.823L190.138 153.809C187.192 148.978 184.508 144.578 184.361 144.312C184.05 145.509 183.636 146.548 183.118 147.429L172.084 164.229C171.704 164.793 171.273 165.304 170.789 165.761C170.34 166.219 169.735 166.448 168.976 166.448H159.03L177.316 138.658L168.354 125.339C166.453 123.205 164.682 120.955 163.042 118.616L158.862 112.648C159.185 112.648 159.507 112.654 159.828 112.668L159.755 112.559H160.943C168.21 112.559 174.957 116.32 178.771 122.499C181.094 126.261 183.456 130.09 184.616 131.974C184.939 131.028 185.347 130.081 185.946 129.206L196.068 114.419C196.758 113.235 197.623 112.648 198.751 112.648H198.854C199.073 112.589 199.301 112.559 199.539 112.559H209.744L192.183 138.183L197.373 146.206L197.53 146.441L197.518 146.428L210.469 166.448Z" fill="white"/>
</svg>
